<svg width="14" height="22" viewBox="0 0 14 22" fill="none" xmlns="http://www.w3.org/2000/svg">
<path d="M7.7 15.596V14.952C7.7 13.524 8.764 12.684 10.136 11.704C11.76 10.556 13.692 9.12803 13.692 6.13203C13.692 2.40803 11.172 3.0756e-05 7 3.0756e-05C2.94 3.0756e-05 3.94881e-06 2.82803 3.94881e-06 6.83203H3.556C3.556 4.67603 4.928 3.19203 6.916 3.19203C8.876 3.19203 10.052 4.45203 10.052 6.35603C10.052 7.98003 8.904 8.93203 7.644 9.94003C6.16 11.088 4.592 12.404 4.592 14.952V15.596H7.7ZM6.272 21.196C7.504 21.196 8.54 20.16 8.54 18.984C8.54 17.752 7.504 16.744 6.272 16.744C5.012 16.744 4.004 17.752 4.004 18.984C4.004 20.188 5.012 21.196 6.272 21.196Z" fill="white"/>
</svg>
